<?xml version="1.0" encoding="utf-8"?>
<!-- Generator: Adobe Illustrator 15.1.0, SVG Export Plug-In . SVG Version: 6.00 Build 0)  -->
<!DOCTYPE svg PUBLIC "-//W3C//DTD SVG 1.0//EN" "http://www.w3.org/TR/2001/REC-SVG-20010904/DTD/svg10.dtd">
<svg version="1.0" id="Layer_1" xmlns="http://www.w3.org/2000/svg" xmlns:xlink="http://www.w3.org/1999/xlink" x="0px" y="0px"
	 width="50px" height="50px" viewBox="0 0 50 50" enable-background="new 0 0 50 50" xml:space="preserve">
<g>
	<path d="M42,4c2.207,0,4,1.794,4,4v34c0,2.207-1.793,4-4,4H8c-2.207,0-4-1.793-4-4V8c0-2.206,1.793-4,4-4H42 M42,0H8
		C3.582,0,0,3.582,0,8v34c0,4.418,3.582,8,8,8h34c4.418,0,8-3.582,8-8V8C50,3.582,46.418,0,42,0L42,0z"/>
	<g>
		<path d="M15.328,37.576c-2.225-3.104-3.336-7.297-3.336-12.576s1.111-9.471,3.336-12.576C17.553,9.32,20.775,7.768,25,7.768
			c4.191,0,7.408,1.553,9.646,4.656c2.242,3.105,3.361,7.297,3.361,12.576s-1.119,9.473-3.361,12.576
			c-2.238,3.105-5.455,4.656-9.646,4.656C20.775,42.232,17.553,40.682,15.328,37.576z M31.408,34.697
			c1.488-2.336,2.23-5.57,2.23-9.697c0-4.096-0.742-7.311-2.23-9.648c-1.488-2.334-3.625-3.504-6.408-3.504s-4.92,1.17-6.408,3.504
			c-1.488,2.338-2.232,5.553-2.232,9.648c0,4.127,0.744,7.361,2.232,9.697s3.625,3.504,6.408,3.504S29.92,37.033,31.408,34.697z"/>
	</g>
</g>
</svg>
