<?xml version="1.0" encoding="utf-8"?>
<!-- Generator: Adobe Illustrator 15.1.0, SVG Export Plug-In . SVG Version: 6.00 Build 0)  -->
<!DOCTYPE svg PUBLIC "-//W3C//DTD SVG 1.0//EN" "http://www.w3.org/TR/2001/REC-SVG-20010904/DTD/svg10.dtd">
<svg version="1.0" id="Layer_1" xmlns="http://www.w3.org/2000/svg" xmlns:xlink="http://www.w3.org/1999/xlink" x="0px" y="0px"
	 width="50px" height="50px" viewBox="0 0 50 50" enable-background="new 0 0 50 50" xml:space="preserve">
<g>
	<path d="M42,4c2.206,0,4,1.794,4,4v34c0,2.207-1.794,4-4,4H8c-2.206,0-4-1.793-4-4V8c0-2.206,1.794-4,4-4H42 M42,0H8
		C3.582,0,0,3.582,0,8v34c0,4.418,3.582,8,8,8h34c4.418,0,8-3.582,8-8V8C50,3.582,46.418,0,42,0L42,0z"/>
	<g>
		<path d="M16.955,41.176c-0.384-0.385-0.575-0.865-0.575-1.439c0-0.576,0.191-1.063,0.575-1.465c0.385-0.398,0.864-0.6,1.44-0.6
			h5.712V13.336l-4.896,2.4c-0.448,0.191-0.815,0.289-1.104,0.289c-0.608,0-1.104-0.193-1.488-0.578
			c-0.384-0.383-0.576-0.879-0.576-1.488c0-0.895,0.416-1.551,1.248-1.967l6.528-3.408c0.448-0.223,0.896-0.336,1.344-0.336h1.009
			c0.64,0,1.183,0.225,1.632,0.672c0.447,0.449,0.672,0.992,0.672,1.633v27.119h4.752c0.576,0,1.063,0.201,1.464,0.6
			c0.399,0.402,0.6,0.889,0.6,1.465c0,0.574-0.2,1.055-0.6,1.439c-0.4,0.385-0.888,0.576-1.464,0.576H18.396
			C17.819,41.752,17.34,41.561,16.955,41.176z"/>
	</g>
</g>
</svg>
