<?xml version="1.0" encoding="utf-8"?>
<!-- Generator: Adobe Illustrator 15.1.0, SVG Export Plug-In . SVG Version: 6.00 Build 0)  -->
<!DOCTYPE svg PUBLIC "-//W3C//DTD SVG 1.0//EN" "http://www.w3.org/TR/2001/REC-SVG-20010904/DTD/svg10.dtd">
<svg version="1.0" id="Layer_1" xmlns="http://www.w3.org/2000/svg" xmlns:xlink="http://www.w3.org/1999/xlink" x="0px" y="0px"
	 width="50px" height="50px" viewBox="0 0 50 50" enable-background="new 0 0 50 50" xml:space="preserve">
<g>
	<path d="M42,4c2.206,0,4,1.794,4,4v34c0,2.207-1.794,4-4,4H8c-2.206,0-4-1.793-4-4V8c0-2.206,1.794-4,4-4H42 M42,0H8
		C3.582,0,0,3.582,0,8v34c0,4.418,3.582,8,8,8h34c4.418,0,8-3.582,8-8V8C50,3.582,46.418,0,42,0L42,0z"/>
	<g>
		<path d="M14.008,41.297c-0.479-0.465-0.72-1.064-0.72-1.801c0-1.664,0.487-3.199,1.464-4.607c0.976-1.408,2.16-2.648,3.552-3.721
			c1.393-1.07,3.224-2.344,5.496-3.816c1.952-1.246,3.504-2.305,4.656-3.168s2.112-1.807,2.88-2.832
			c0.768-1.023,1.152-2.111,1.152-3.264c0-1.822-0.601-3.271-1.801-4.344c-1.199-1.072-3.128-1.607-5.783-1.607
			c-2.88,0-5.616,0.574-8.208,1.727c-0.32,0.16-0.624,0.242-0.912,0.242c-0.513,0-0.944-0.176-1.296-0.529
			c-0.353-0.352-0.528-0.799-0.528-1.344c0-0.799,0.352-1.393,1.056-1.775c3.265-1.633,6.816-2.449,10.656-2.449
			c2.048,0,3.912,0.408,5.592,1.225c1.681,0.814,3.008,1.959,3.984,3.432c0.976,1.473,1.464,3.168,1.464,5.088
			c0,1.889-0.552,3.641-1.656,5.256c-1.104,1.617-2.424,3.031-3.96,4.248s-3.536,2.625-6,4.225c-2.24,1.504-3.929,2.711-5.063,3.625
			c-1.137,0.91-1.929,1.848-2.376,2.807H34.36c0.575,0,1.063,0.201,1.464,0.6c0.399,0.402,0.6,0.889,0.6,1.465
			c0,0.574-0.2,1.055-0.6,1.439c-0.4,0.385-0.889,0.576-1.464,0.576H15.832C15.096,41.992,14.488,41.762,14.008,41.297z"/>
	</g>
</g>
</svg>
