<?xml version="1.0" encoding="utf-8"?>
<!-- Generator: Adobe Illustrator 15.1.0, SVG Export Plug-In . SVG Version: 6.00 Build 0)  -->
<!DOCTYPE svg PUBLIC "-//W3C//DTD SVG 1.0//EN" "http://www.w3.org/TR/2001/REC-SVG-20010904/DTD/svg10.dtd">
<svg version="1.0" id="Layer_1" xmlns="http://www.w3.org/2000/svg" xmlns:xlink="http://www.w3.org/1999/xlink" x="0px" y="0px"
	 width="50px" height="50px" viewBox="0 0 50 50" enable-background="new 0 0 50 50" xml:space="preserve">
<g>
	<path d="M42,4c2.206,0,4,1.794,4,4v34c0,2.207-1.794,4-4,4H8c-2.206,0-4-1.793-4-4V8c0-2.206,1.794-4,4-4H42 M42,0H8
		C3.582,0,0,3.582,0,8v34c0,4.418,3.582,8,8,8h34c4.418,0,8-3.582,8-8V8C50,3.582,46.418,0,42,0L42,0z"/>
	<g>
		<path d="M29.344,41.369c-0.416-0.418-0.624-0.93-0.624-1.537v-6.529H14.08c-0.769,0-1.425-0.262-1.969-0.791
			c-0.544-0.527-0.815-1.176-0.815-1.943v-0.434c0-0.672,0.191-1.246,0.576-1.727L26.943,9.16c0.256-0.352,0.601-0.631,1.032-0.84
			s0.888-0.313,1.368-0.313h0.96c0.832,0,1.504,0.264,2.016,0.791c0.512,0.529,0.769,1.193,0.769,1.992v18.625h3.647
			c0.544,0,1.009,0.191,1.393,0.576s0.576,0.848,0.576,1.393c0,0.543-0.192,1-0.576,1.367s-0.849,0.551-1.393,0.551h-3.647v6.529
			c0,0.607-0.216,1.119-0.648,1.537c-0.432,0.414-0.952,0.623-1.56,0.623C30.271,41.992,29.759,41.783,29.344,41.369z
			 M15.952,29.416H28.72V12.951L15.952,29.416z"/>
	</g>
</g>
</svg>
