<?xml version="1.0" encoding="utf-8"?>
<!-- Generator: Adobe Illustrator 15.1.0, SVG Export Plug-In . SVG Version: 6.00 Build 0)  -->
<!DOCTYPE svg PUBLIC "-//W3C//DTD SVG 1.0//EN" "http://www.w3.org/TR/2001/REC-SVG-20010904/DTD/svg10.dtd">
<svg version="1.0" id="Layer_1" xmlns="http://www.w3.org/2000/svg" xmlns:xlink="http://www.w3.org/1999/xlink" x="0px" y="0px"
	 width="50px" height="50px" viewBox="0 0 50 50" enable-background="new 0 0 50 50" xml:space="preserve">
<g>
	<path d="M42,4c2.207,0,4,1.794,4,4v34c0,2.207-1.793,4-4,4H8c-2.206,0-4-1.793-4-4V8c0-2.206,1.794-4,4-4H42 M42,0H8
		C3.582,0,0,3.582,0,8v34c0,4.418,3.582,8,8,8h34c4.418,0,8-3.582,8-8V8C50,3.582,46.418,0,42,0L42,0z"/>
	<g>
		<path d="M13.792,39.207c-0.32-0.223-0.561-0.455-0.721-0.695s-0.239-0.584-0.239-1.031c0-0.578,0.175-1.064,0.527-1.465
			c0.353-0.398,0.816-0.6,1.393-0.6c0.352,0,0.688,0.08,1.008,0.24c2.527,1.344,5.088,2.016,7.68,2.016
			c3.04,0,5.359-0.512,6.961-1.535c1.6-1.023,2.398-2.77,2.398-5.234c0-1.982-0.664-3.551-1.992-4.703s-3.143-1.727-5.447-1.727
			c-2.656,0-5.12,0.688-7.392,2.063c-0.064,0.033-0.248,0.137-0.552,0.313c-0.305,0.176-0.681,0.264-1.128,0.264
			c-0.896,0-1.648-0.256-2.256-0.768c-0.608-0.512-0.912-1.184-0.912-2.016c0-0.385,0.031-0.77,0.096-1.152l2.16-12.768
			c0.096-0.736,0.376-1.32,0.84-1.752c0.464-0.434,1.032-0.648,1.704-0.648h15.408c0.576,0,1.064,0.199,1.463,0.6
			c0.4,0.4,0.602,0.889,0.602,1.463c0,0.578-0.201,1.059-0.602,1.441c-0.398,0.383-0.887,0.576-1.463,0.576h-13.92l-1.536,10.176
			c2.432-1.311,5.136-1.967,8.111-1.967c2.368,0,4.394,0.463,6.073,1.391c1.68,0.93,2.951,2.207,3.816,3.84
			c0.863,1.633,1.295,3.504,1.295,5.617c0,3.23-1.104,5.848-3.313,7.848s-5.488,3-9.84,3C20.111,41.992,16.703,41.064,13.792,39.207
			z"/>
	</g>
</g>
</svg>
