<?xml version="1.0" encoding="utf-8"?>
<!-- Generator: Adobe Illustrator 15.1.0, SVG Export Plug-In . SVG Version: 6.00 Build 0)  -->
<!DOCTYPE svg PUBLIC "-//W3C//DTD SVG 1.0//EN" "http://www.w3.org/TR/2001/REC-SVG-20010904/DTD/svg10.dtd">
<svg version="1.0" id="Layer_1" xmlns="http://www.w3.org/2000/svg" xmlns:xlink="http://www.w3.org/1999/xlink" x="0px" y="0px"
	 width="50px" height="50px" viewBox="0 0 50 50" enable-background="new 0 0 50 50" xml:space="preserve">
<g>
	<path d="M42,4c2.207,0,4,1.794,4,4v34c0,2.207-1.793,4-4,4H8c-2.207,0-4-1.793-4-4V8c0-2.206,1.793-4,4-4H42 M42,0H8
		C3.582,0,0,3.582,0,8v34c0,4.418,3.582,8,8,8h34c4.418,0,8-3.582,8-8V8C50,3.582,46.418,0,42,0L42,0z"/>
	<g>
		<path d="M19.455,41.25c-0.416-0.418-0.623-0.93-0.623-1.539c0-0.383,0.094-0.766,0.287-1.152L32.32,12.304H14.895
			c-0.574,0-1.063-0.199-1.463-0.6s-0.6-0.889-0.6-1.463c0-0.578,0.199-1.074,0.6-1.488c0.4-0.418,0.889-0.625,1.463-0.625H34.48
			c0.766,0,1.406,0.24,1.918,0.719c0.512,0.48,0.77,1.09,0.77,1.824c0,0.705-0.16,1.41-0.48,2.113L23.055,40.672
			c-0.191,0.352-0.48,0.641-0.863,0.863c-0.383,0.227-0.785,0.336-1.199,0.336C20.383,41.871,19.871,41.664,19.455,41.25z"/>
	</g>
</g>
</svg>
