<?xml version="1.0" encoding="utf-8"?>
<!-- Generator: Adobe Illustrator 15.1.0, SVG Export Plug-In . SVG Version: 6.00 Build 0)  -->
<!DOCTYPE svg PUBLIC "-//W3C//DTD SVG 1.0//EN" "http://www.w3.org/TR/2001/REC-SVG-20010904/DTD/svg10.dtd">
<svg version="1.0" id="Layer_1" xmlns="http://www.w3.org/2000/svg" xmlns:xlink="http://www.w3.org/1999/xlink" x="0px" y="0px"
	 width="50px" height="50px" viewBox="0 0 50 50" enable-background="new 0 0 50 50" xml:space="preserve">
<g>
	<path d="M42,4c2.207,0,4,1.794,4,4v34c0,2.207-1.793,4-4,4H8c-2.207,0-4-1.793-4-4V8c0-2.206,1.793-4,4-4H42 M42,0H8
		C3.582,0,0,3.582,0,8v34c0,4.418,3.582,8,8,8h34c4.418,0,8-3.582,8-8V8C50,3.582,46.418,0,42,0L42,0z"/>
	<g>
		<path d="M17.633,40.84c-1.902-0.928-3.289-2.096-4.152-3.504s-1.297-2.896-1.297-4.463c0-4.449,2.387-7.473,7.152-9.074
			c-1.629-0.543-2.969-1.43-4.008-2.664c-1.039-1.23-1.559-2.773-1.559-4.631c0-1.375,0.375-2.736,1.129-4.08
			c0.75-1.344,1.965-2.455,3.648-3.336c1.68-0.879,3.828-1.32,6.453-1.32s4.777,0.441,6.457,1.32
			c1.68,0.881,2.895,1.992,3.648,3.336c0.75,1.344,1.129,2.705,1.129,4.08c0,1.857-0.523,3.4-1.563,4.631
			c-1.039,1.234-2.375,2.121-4.008,2.664c4.77,1.602,7.152,4.625,7.152,9.074c0,1.566-0.43,3.055-1.297,4.463
			c-0.863,1.408-2.246,2.576-4.148,3.504c-1.906,0.928-4.363,1.393-7.371,1.393S19.535,41.768,17.633,40.84z M29.875,37.408
			c1.262-0.656,2.176-1.447,2.734-2.375c0.559-0.93,0.84-1.809,0.84-2.641c0-2.047-0.816-3.641-2.449-4.777
			c-1.629-1.135-3.633-1.703-6-1.703s-4.367,0.568-6,1.703c-1.629,1.137-2.445,2.73-2.445,4.777c0,0.832,0.277,1.711,0.84,2.641
			c0.559,0.928,1.469,1.719,2.734,2.375s2.887,0.984,4.871,0.984S28.609,38.064,29.875,37.408z M30.211,20.393
			c1.102-1.057,1.652-2.258,1.652-3.602c0-1.504-0.582-2.742-1.75-3.719S27.242,11.607,25,11.607c-2.238,0-3.941,0.488-5.109,1.465
			c-1.172,0.977-1.754,2.215-1.754,3.719c0,1.344,0.551,2.545,1.656,3.602c1.105,1.055,2.84,1.582,5.207,1.582
			S29.105,21.447,30.211,20.393z"/>
	</g>
</g>
</svg>
