<?xml version="1.0" encoding="utf-8"?>
<!-- Generator: Adobe Illustrator 15.1.0, SVG Export Plug-In . SVG Version: 6.00 Build 0)  -->
<!DOCTYPE svg PUBLIC "-//W3C//DTD SVG 1.1//EN" "http://www.w3.org/Graphics/SVG/1.1/DTD/svg11.dtd">
<svg version="1.1" id="Layer_2" xmlns="http://www.w3.org/2000/svg" xmlns:xlink="http://www.w3.org/1999/xlink" x="0px" y="0px"
	 width="1024px" height="1024px" viewBox="0 0 1024 1024" enable-background="new 0 0 1024 1024" xml:space="preserve">
<rect x="0" fill="#FFFFFF" width="1024" height="1024"/>
<g>
	<path display="none" d="M595.301,166.067c13.44-44.306-55.484-75.482-55.484-75.482s122.891-7.817,114.771,95.54
		c-3.656,46.531-50.669,70.585-73.711,61.163C557.836,237.865,587.937,190.344,595.301,166.067z"/>
	<path display="none" d="M421.447,166.067c-13.44-44.306,55.484-75.482,55.484-75.482s-122.89-7.817-114.771,95.54
		c3.654,46.531,50.669,70.585,73.709,61.163C458.91,237.865,428.813,190.344,421.447,166.067z"/>
	<ellipse fill="#AD6A6C" cx="515.628" cy="773.776" rx="231.679" ry="159.772"/>
	<g>
		<ellipse fill="#00569E" cx="437.838" cy="498.896" rx="35.808" ry="54.93"/>
		<ellipse fill="#47C5FB" cx="601.229" cy="498.896" rx="35.809" ry="54.93"/>
	</g>
	<path fill="#D0ADA7" d="M775.127,276.481c19.661-36.766-8.368-90.083-8.368-90.083s-59.906,6.293-79.567,43.06
		c-19.66,36.767-15.913,77.1,8.369,90.084S755.467,313.249,775.127,276.481z"/>
	<path fill="#D0ADA7" d="M248.873,276.481c-19.662-36.766,8.369-90.083,8.369-90.083s59.905,6.293,79.566,43.06
		c19.66,36.767,15.913,77.1-8.37,90.084C304.158,332.527,268.532,313.249,248.873,276.481z"/>
	<ellipse fill="#FFFFFF" cx="422.274" cy="773.809" rx="41.858" ry="32.94"/>
	<ellipse fill="#FFFFFF" cx="603.695" cy="773.809" rx="41.858" ry="32.94"/>
	<path fill="none" stroke="#FFFFFF" stroke-width="8" stroke-linecap="round" stroke-miterlimit="10" d="M407.732,852.783
		c67.182,34.283,139.672,36.162,208.535,0"/>
</g>
<path display="none" d="M347.678,146.955l164.329,164.522l50.669-50.668L347.843,46.029v100.748L347.678,146.955z M499.3,146.763
	l88.422,88.616l88.602-88.602V45.81l-88.573,88.463L499.285,45.81v100.939L499.3,146.763z"/>
<g>
	<polygon fill="#47C5FB" points="358.381,137.454 511.379,290.45 558.734,243.094 358.381,42.741 	"/>
	<polygon fill="#47C5FB" points="499.473,138.52 581.392,220.438 629.635,172.905 582.368,125.636 499.473,42.741 	"/>
	<polygon fill="#00569E" points="629.636,172.903 665.619,136.92 665.619,42.741 582.368,125.637 	"/>
	<polygon fill="#00B5F8" points="581.924,220.971 534.568,173.615 582.368,125.637 629.636,172.905 	"/>
	
		<linearGradient id="SVGID_1_" gradientUnits="userSpaceOnUse" x1="96.6399" y1="813.478" x2="96.9164" y2="813.3784" gradientTransform="matrix(-4.918736e-006 -112.5276 -112.5303 4.918857e-006 92141.4609 11046.7539)">
		<stop  offset="0" style="stop-color:#000000"/>
		<stop  offset="1" style="stop-color:#000000;stop-opacity:0"/>
	</linearGradient>
	<polygon fill="url(#SVGID_1_)" fill-opacity="0.8" points="629.636,172.905 616.575,133.545 586.365,129.635 	"/>
</g>
</svg>
